<?xml version="1.0" standalone="no"?>
<!DOCTYPE svg PUBLIC "-//W3C//DTD SVG 20010904//EN"
 "http://www.w3.org/TR/2001/REC-SVG-20010904/DTD/svg10.dtd">
<svg version="1.0" xmlns="http://www.w3.org/2000/svg"
 width="1566.000000pt" height="1566.000000pt" viewBox="0 0 1566.000000 1566.000000"
 preserveAspectRatio="xMidYMid meet">
<metadata>
Created by potrace 1.14, written by Peter Selinger 2001-2017
</metadata>
<g transform="translate(0.000000,1566.000000) scale(0.100000,-0.100000)"
fill="#000000" stroke="none">
<path d="M11411 11699 c-192 -32 -474 -177 -706 -364 -658 -528 -1308 -1520
-1528 -2331 -34 -125 -44 -170 -61 -291 -4 -32 12 -19 -311 -255 -254 -186
-566 -420 -659 -494 -45 -35 -367 -288 -405 -318 -11 -8 -13 -8 -8 0 6 11 24
78 182 689 42 160 82 315 90 345 17 59 75 281 131 500 65 252 85 325 99 355 7
17 24 55 38 85 177 393 249 735 193 910 -49 155 -188 245 -337 218 -239 -43
-580 -354 -976 -888 -204 -275 -422 -619 -598 -945 -52 -96 -205 -401 -205
-409 0 -3 -13 -33 -29 -68 -74 -161 -166 -418 -195 -548 -24 -106 -27 -121
-31 -206 -6 -126 23 -218 92 -295 70 -77 165 -105 283 -85 88 15 264 124 389
240 194 181 438 474 635 764 31 45 56 79 56 74 0 -10 -108 -414 -140 -522 -10
-36 -51 -184 -90 -330 -39 -146 -73 -273 -76 -282 -3 -9 -91 -92 -196 -185
-106 -92 -201 -176 -212 -186 -310 -274 -889 -852 -984 -982 -17 -22 -38 -63
-48 -92 -10 -28 -25 -54 -34 -56 -8 -3 -107 -37 -220 -77 -113 -39 -277 -96
-365 -126 -88 -30 -176 -61 -195 -69 -19 -8 -96 -35 -170 -60 -140 -48 -723
-251 -890 -310 -359 -126 -447 -157 -460 -160 -8 -3 -85 -29 -170 -59 -299
-105 -601 -210 -1240 -433 -135 -46 -270 -94 -300 -104 -30 -11 -80 -28 -110
-38 -87 -30 -113 -44 -142 -76 -36 -39 -47 -72 -43 -129 5 -88 66 -150 157
-162 45 -5 73 4 678 216 113 40 223 78 245 85 22 8 117 41 210 73 317 112 895
313 1195 417 69 24 217 76 330 115 113 40 261 91 330 115 69 24 211 74 315
110 608 212 930 323 941 327 7 2 35 -28 62 -67 140 -193 349 -405 572 -579
113 -88 141 -100 235 -100 71 -1 86 2 134 29 101 56 118 90 206 425 65 244
116 442 120 460 2 8 22 85 46 171 l42 156 251 88 c821 285 973 338 991 345 11
5 56 21 100 36 124 42 906 314 1635 569 52 18 199 69 325 113 127 44 327 114
445 155 118 41 373 130 565 197 193 66 386 134 430 150 188 67 231 82 245 86
15 3 93 31 570 199 151 53 303 105 337 115 182 54 375 38 548 -45 98 -47 151
-87 273 -207 277 -273 480 -495 660 -728 45 -58 91 -116 102 -130 42 -52 210
-309 264 -403 128 -224 224 -464 261 -658 3 -18 8 -90 10 -159 5 -140 -8 -221
-51 -322 -29 -68 -89 -168 -102 -168 -4 0 -48 78 -96 173 -49 94 -128 249
-176 342 -48 94 -136 265 -195 380 -59 116 -145 282 -190 370 -45 88 -135 263
-200 389 -64 126 -122 237 -128 247 -28 45 -117 65 -169 38 -52 -28 -83 -95
-69 -147 5 -15 57 -122 116 -238 144 -281 278 -541 390 -759 51 -99 135 -263
188 -365 52 -102 144 -282 206 -402 61 -119 111 -220 111 -226 0 -5 -18 -21
-40 -36 -52 -34 -230 -129 -234 -125 -1 2 -49 94 -106 204 -131 254 -226 438
-305 590 -34 66 -110 212 -168 325 -191 371 -196 378 -240 398 -62 27 -133 6
-167 -51 -31 -50 -25 -94 23 -188 24 -46 90 -174 147 -284 56 -110 126 -245
155 -300 323 -617 408 -787 394 -795 -7 -5 -67 -23 -133 -40 -67 -17 -128 -33
-136 -35 -17 -5 -16 -7 -247 445 -217 423 -216 422 -255 442 -89 48 -198 -13
-198 -111 0 -38 36 -111 351 -719 61 -117 64 -123 52 -120 -5 1 -28 -2 -53 -6
-63 -11 -113 -18 -225 -32 -98 -12 -163 -74 -171 -162 -7 -88 58 -175 140
-189 54 -8 293 23 506 67 55 11 77 16 115 24 271 59 572 162 770 264 722 374
928 987 597 1777 -76 182 -183 377 -315 575 -78 117 -220 309 -280 380 -6 8
-32 39 -57 70 -215 268 -667 735 -801 826 -116 79 -214 127 -334 163 -125 37
-187 45 -335 44 -136 0 -249 -19 -365 -60 -38 -14 -106 -37 -150 -53 -169 -60
-288 -102 -525 -184 -304 -105 -822 -286 -1035 -361 -88 -31 -167 -58 -175
-60 -8 -2 -85 -29 -170 -59 -85 -30 -297 -104 -470 -164 -173 -61 -763 -266
-1310 -457 -547 -191 -1105 -385 -1240 -432 -135 -47 -301 -105 -370 -130 -69
-25 -137 -47 -152 -50 -26 -5 -27 -4 -17 23 15 47 169 637 169 651 0 7 3 13 8
13 4 0 23 15 42 33 31 30 343 288 428 356 18 14 39 31 45 36 35 31 355 279
497 386 374 281 555 410 559 397 32 -108 124 -231 226 -303 103 -73 209 -113
360 -134 70 -10 309 -7 375 4 50 8 140 24 171 30 15 3 71 17 125 31 55 14 106
27 114 29 70 15 406 136 595 215 291 122 823 388 1015 509 14 9 35 21 48 28
12 7 32 19 45 26 12 7 33 19 47 28 14 9 79 49 145 89 284 174 544 352 836 571
211 159 255 201 264 251 12 65 12 74 -2 113 -33 96 -135 151 -231 126 -24 -7
-90 -50 -168 -111 -405 -315 -929 -658 -1374 -899 -111 -61 -478 -244 -565
-283 -33 -15 -91 -41 -130 -58 -298 -134 -737 -278 -925 -304 -19 -2 -56 -8
-83 -11 -120 -18 -265 -10 -362 19 -95 28 -168 120 -183 230 -10 75 -3 240 13
326 9 47 18 98 21 114 3 16 27 95 54 175 154 469 466 1011 865 1500 133 164
346 382 485 497 212 176 415 282 575 299 73 8 90 -5 104 -79 25 -134 -9 -340
-106 -640 -30 -93 -31 -151 -3 -206 73 -143 296 -124 352 31 36 98 101 327
113 398 3 17 8 46 11 64 18 98 22 154 19 272 -3 193 -40 304 -132 405 -109
119 -257 161 -452 129z m-3321 -1419 c0 -41 -83 -314 -101 -334 -5 -6 -9 -16
-9 -24 0 -17 -144 -332 -198 -432 -22 -41 -59 -110 -81 -153 -110 -206 -373
-622 -540 -852 -76 -105 -231 -302 -310 -395 -69 -82 -262 -274 -320 -319
l-44 -35 7 49 c30 196 182 558 399 950 89 161 127 225 202 345 306 491 667
948 920 1167 67 58 75 62 75 33z m-1077 -3900 c-24 -91 -46 -174 -48 -185 -2
-11 -13 -54 -25 -95 -18 -66 -70 -264 -206 -780 -44 -167 -54 -200 -61 -200
-19 0 -254 228 -345 335 -112 132 -154 199 -142 225 12 25 184 209 365 390
183 182 501 482 505 477 1 -1 -18 -76 -43 -167z"/>
<path d="M6191 10261 c-60 -21 -103 -55 -132 -106 -12 -22 -56 -96 -97 -165
-41 -69 -80 -134 -86 -145 -30 -55 -464 -767 -582 -955 -309 -493 -742 -1150
-939 -1427 -11 -16 -58 -82 -104 -148 -71 -101 -337 -467 -364 -500 -4 -5 -59
-77 -122 -160 -64 -82 -121 -157 -128 -165 -6 -8 -55 -69 -108 -135 -264 -328
-501 -595 -629 -708 -53 -47 -55 -48 -61 -25 -7 28 -3 282 5 353 4 28 9 73 12
100 3 28 9 75 14 105 5 30 12 75 15 100 9 72 64 355 92 475 13 61 27 121 29
135 11 59 136 528 152 570 5 14 10 27 10 30 0 3 6 25 13 50 7 25 13 50 15 55
13 59 248 770 274 830 4 11 25 67 45 125 39 108 82 221 188 490 67 170 79 239
54 300 -20 46 -64 94 -103 114 -66 33 -116 30 -344 -18 -14 -3 -50 -11 -80
-17 -295 -58 -891 -207 -1115 -279 -33 -10 -134 -42 -225 -70 -169 -53 -397
-130 -460 -155 -19 -7 -66 -25 -105 -39 -38 -14 -83 -31 -100 -37 -16 -7 -34
-13 -40 -15 -22 -5 -467 -187 -560 -229 -387 -171 -526 -238 -557 -269 -42
-43 -62 -95 -61 -157 2 -103 63 -179 161 -204 64 -17 110 -10 187 25 36 16 95
44 133 61 858 395 1694 682 2607 894 113 26 108 26 102 7 -3 -9 -45 -127 -95
-262 -99 -272 -185 -523 -261 -765 -50 -161 -147 -491 -156 -530 -2 -11 -21
-81 -40 -155 -20 -74 -39 -146 -41 -160 -3 -14 -9 -38 -14 -55 -5 -16 -14 -57
-21 -90 -7 -33 -14 -64 -15 -70 -13 -50 -71 -339 -80 -395 -3 -19 -7 -42 -9
-50 -2 -8 -7 -37 -11 -65 -3 -27 -8 -59 -10 -69 -3 -18 -18 -128 -29 -218 -18
-149 -24 -403 -12 -497 30 -225 124 -367 281 -426 38 -14 66 -16 125 -12 202
14 392 157 731 547 36 41 69 80 75 86 5 6 28 33 50 60 22 27 54 64 71 84 17
19 84 102 150 185 65 82 124 156 131 165 7 8 69 89 137 180 69 91 129 170 134
175 4 6 78 107 163 225 250 347 326 457 579 835 103 154 207 312 232 350 25
39 79 122 120 185 41 63 98 153 127 200 29 47 75 121 103 165 154 244 638
1040 726 1195 11 19 45 79 76 132 48 83 56 104 56 148 0 152 -140 258 -279
211z"/>
</g>
</svg>
